<?xml version="1.0" encoding="utf-8"?>
<!-- Generator: Adobe Illustrator 16.0.0, SVG Export Plug-In . SVG Version: 6.00 Build 0)  -->
<!DOCTYPE svg PUBLIC "-//W3C//DTD SVG 1.1//EN" "http://www.w3.org/Graphics/SVG/1.1/DTD/svg11.dtd">
<svg version="1.1" id="Layer_1" xmlns="http://www.w3.org/2000/svg" xmlns:xlink="http://www.w3.org/1999/xlink" x="0px" y="0px"
	 width="340.16px" height="340.16px" viewBox="0 0 340.16 340.16" enable-background="new 0 0 340.16 340.16" xml:space="preserve">
<g>
	<path fill-rule="evenodd" clip-rule="evenodd" fill="#231917" d="M170.08,337.66C77.676,337.66,2.5,262.484,2.5,170.08
		C2.5,77.676,77.676,2.5,170.08,2.5c92.404,0,167.58,75.176,167.58,167.58C337.66,262.484,262.484,337.66,170.08,337.66z"/>
	<path fill="#C1A166" d="M170.08,5c44.095,0,85.55,17.171,116.729,48.351c31.18,31.18,48.351,72.635,48.351,116.729
		c0,44.095-17.171,85.55-48.351,116.729S214.175,335.16,170.08,335.16c-44.094,0-85.55-17.171-116.729-48.351
		C22.171,255.63,5,214.175,5,170.08c0-44.094,17.171-85.55,48.351-116.729C84.53,22.171,125.986,5,170.08,5 M170.08,0
		C76.147,0,0,76.147,0,170.08s76.147,170.08,170.08,170.08s170.08-76.147,170.08-170.08S264.013,0,170.08,0L170.08,0z"/>
</g>
<g>
	
		<path fill-rule="evenodd" clip-rule="evenodd" fill="#FFFFFF" stroke="#FFFFFF" stroke-width="2" stroke-linecap="round" stroke-linejoin="round" d="
		M222.887,184.684c3.074-0.488,4.919-1.846,6.696-3.156l2.517-1.701c4.119-2.326,8.711-4.354,13.246-5.861
		c0,0,6.495-0.666,6.524-0.671c3.6-1.003,6.792-1.179,10.17-1.366c3.559-0.197,7.243-0.398,11.593-1.608
		c0,0,8.344-1.182,8.381-1.194l2.642-0.957c2.824-1.01,6.022-2.147,8.417-3.496l1.965-1.392l3.02-1.933l1.315-0.566
		c1.629-0.735,3.476-1.568,4.562-0.993l1.043,0.599c0,0,1.154,0.595,1.223,0.56c0.001,0.033,0.215,2.407,0.215,2.407l0.476,0.064
		c0,0,0.866,0.311,0.907,0.329c1.264,0.42,1.564,1.096,1.947,1.95c0,0,0.808,1.422,0.834,1.427
		c-0.206,3.521-2.204,4.366-4.522,5.348l-3.093,1.578c-0.08,0.051-0.105,0.123-0.101,0.238c0,0.146,0.059,0.363,0.139,0.688
		c0.129,0.498,0.302,1.191,0.325,1.865c0.017,0.502-0.051,0.988-0.303,1.371c-0.617,1.811-1.914,2.344-3.412,2.963
		c0,0-2.349,1.189-2.346,1.209c-0.006-0.002-7.141,0.4-7.141,0.4l0.069,0.791l-1.638,1.229l-2.005,1.619l-1.009,2.08
		c-0.362,0.967-0.701,1.883-1.602,2.518c-0.911,0.635-2.263,0.557-3.25,0.506c0,0-1.364,0.078-1.37,0.078
		c-0.469,0.26-0.429,0.695-0.39,1.076l-0.085,0.824c-1.054,1.902-2.622,2.672-5.972,2.941l-0.335,0.947
		c-0.514,1.502-0.922,2.689-2.313,3.777c0.446,2.178,1.736,3.414,2.984,4.609l1.9,2.098l2.013,4.496c0,0,0.476,1.293,0.511,1.115
		l-1.297,2.33l-0.917,1.855c-3.17,4.617-8.632,7.92-12.578,9.865l-3.269,0.107l-3.02,0.326c0,0-3.009,0.324-3.162,0.475
		c-0.449,3.564-2.419,4.828-4.508,6.166c-1.771,1.135-3.61,2.316-4.302,4.875l-1.188,0.158c-1.961,0.285-4.187,0.613-5.904-0.342
		l-0.9,1.049c-0.549,0.719-1.027,1.33-2.25,1.768c-1.824,1.289-5.669,0.309-7.771-0.227c-5.4-1.352-8.947-2.34-12.663-4.563
		l-1.363-1.01c-1.502-1.197-3.381-2.691-4.914-2.449l-1.548,0.484c-1.148,0.439-2.473,0.941-3.94,0.611l-1.555-0.41
		c-2.234-0.633-5.299-1.484-8.338-0.629c-4.941,1.377-19.181,1.838-24.566,0.801c-2.688-0.523-4.918-0.057-6.891,0.352l-3.808,0.439
		l-10.817-0.004c0,0-7.812,0.16-7.798,0.16l-2.489-0.223c0,0-1.245-0.109-1.301-0.107c-1.896,0.451-6.748,1.125-9.674,0.316
		c-3.593-0.992-6.315-2.871-8.945-4.691l-1.897-1.283l-2.193-1.295c-1.679-0.932-3.265-1.809-4.439-3.447l-0.035-0.031
		c0,0-2.749-2.1-2.792-2.061c0-0.012-0.118-2.525-0.118-2.525s-0.003-0.176-0.012-0.422c-0.013-0.469-0.056-1.178-0.167-1.283
		c-2.135-0.02-5.961-0.387-7.355-1.064c0,0-2.414-2.654-2.558-2.705l-2.726,0.311c0,0-2.774,0.32-2.78,0.334
		c-1.215-0.355-2.206-1.475-3.162-2.559c-0.831-0.949-1.624-1.84-2.546-2.24c-1.19-0.512-2.391-0.473-3.556-0.434l-2.994-0.271
		c-1.058-0.367-1.993-1.252-2.897-2.109c0,0-2.341-1.793-2.416-1.809l-2.746,0.096c-2.884-0.721-4.723-2.258-5.643-4.76
		l-0.389-0.854l-0.078-0.414l-0.394-0.127c0,0-1.554-0.371-1.655-0.402c-2.817,0.043-4.327-0.955-5.094-3.4l-0.46-1.488
		l-0.061-0.365l-3.492-0.264c-5.45-0.395-11.079-0.797-15.281-2.748l-3.754-2.246c0,0-3.241-2-3.274-1.975
		c-0.004-0.008-1.538-4.471-1.538-4.471l0.222-3.035c0.136-0.697,0.268-1.336,0.253-1.801c-0.009-0.256-0.061-0.457-0.177-0.59
		l-0.172-1.188l2.242-0.887c0,0,1.377-0.566,1.377-0.588c0,0,0,0-0.002,0c0,0,42.515,4.973,42.544,4.971l2.056,0.01
		c2.77,0.053,6.971,0.139,10.532-0.877c4.667-1.332,14.536-3.547,18.437-2.418c2.818,0.816,5.545,2.389,8.177,3.906l4.567,2.477
		l1.834,0.537c0,0,1.903,0.691,2.043,0.719l0.46-0.094c0,0,0.988-0.441,1.019-0.473c0,0,0.177-0.205,0.326-0.504
		c0,0,0.105-0.355,0.101-0.566c0-0.027-0.009-0.059-0.013-0.08c-1.06-0.936-2.012-2.475-2.419-3.971
		c-0.128-0.191-0.188-0.426-0.194-0.688c-0.025-0.773,0.423-1.748,1.043-2.463c-0.542-2.02-3.932-4.697-5.743-5.252l-0.164-1.324
		c-0.254-2.186-0.597-5.181-1.475-6.31c-0.013-2.535,0.812-2.694,3.15-3.311l-0.482-1.867c0,0-0.581-3.332-0.769-3.349
		c0.229-0.005,10.925-0.313,12.963-1.782l0.622-0.244c-0.483-1.247-1.403-2.17-2.281-3.068l-2.085-2.701l-0.423-1.91
		c0,0-0.659-2.171-0.63-2.08c-0.131-2.752-0.061-4.765,0.567-6.204l3.422-0.278c-0.088-1.954-0.084-3.418,0.686-4.405
		c1.432-0.631,3.239,0.584,4.987,1.761l2.911,1.615c4.085,1.17,15.385-3.59,17.563-5.558c6.884-0.018,7.288-0.874,8.366-3.171
		c0,0,1.817-3.133,1.848-3.246c-0.295-2.508-1.938-5.122-3.925-6.155l0.152-0.497c0,0,0.093-0.164,0.219-0.329
		c2.017-1.313,15.052,4.711,16.893,6.277l2.438-0.95c1.136-0.563,2.123-1.047,3.142-0.616l0.987-1.12c0,0,0.415-0.78,0.443-0.915
		c-0.646-2.871-6.781-10.201-8.741-11.49l-0.227-1.648c6.386,0.02,21.736,6.814,26.281,10.011l4.633,4.329
		c1.816,1.891,3.698,3.85,5.362,4.746c0.093,2.25,0.075,5.391-1.177,6.908c0.54,1.278,1.387,1.644,2.202,1.997l1.648,1.1
		c0.386,0.479,0.504,1.666,0.604,2.72c0,0,0.483,2.236,0.483,2.241c0.209,0.252,1.146,0.545,2.649,1.004l3.03,1.109
		c0.947,0.702,4.434,7.448,4.871,8.833c0.594,1.857-1.659,9.061-2.465,10.091c0.659,1.424,2.025,2.09,3.351,2.735
		c1.148,0.555,2.237,1.085,2.84,2.03c0,0,1.582,5.846,1.584,5.853l0.26,0.692c0,0,0.28,1.447,0.269,1.522
		c0.153,5.278-5.807,7.985-9.496,8.903l-0.164,1.178C222.907,182.932,222.684,184.498,222.887,184.684z"/>
	<path fill-rule="evenodd" clip-rule="evenodd" fill="#231F20" d="M104.433,222.873c-0.184-1.896-0.104-1.797-0.13-4.078
		c-2.051-0.021-5.968-0.367-7.483-1.115c-0.805-0.889-1.608-1.77-2.408-2.654c-1.854,0.211-3.71,0.428-5.57,0.639
		c-2.334-0.68-3.778-3.965-5.73-4.803c-2.181-0.945-4.415,0.037-6.544-0.703c-2.022-0.703-3.574-3.205-5.247-3.912
		c-0.931,0.031-1.854,0.063-2.79,0.094c-2.787-0.695-4.779-2.188-5.736-4.814c-0.39-0.482-0.315-0.391-0.503-1.344
		c-1.091-0.057-1.31-0.021-1.875-0.393c-3.061,0.047-4.516-1.148-5.233-3.467c-0.414-0.516-0.409-0.732-0.519-1.797
		c-6.614-0.559-13.625-0.654-18.713-3.021c-2.331-1.09-4.749-3.094-7.117-4.313c-0.515-1.496-1.03-2.99-1.542-4.49
		c-0.432-1.793,0.914-4.65,0.292-5.457c-0.013-0.449-0.024-0.902-0.041-1.359c1.223-0.289,2.912-1.313,3.68-1.48
		c14.169,1.656,28.342,3.314,42.512,4.973c2.114-0.096,7.91,0.463,12.545-0.863c3.796-1.08,14.378-3.623,18.542-2.418
		c4.496,1.309,8.759,4.523,12.769,6.395c1.438,0.67,2.636,0.414,3.766,1.244c0.965-0.207,0.882-0.117,1.377-0.504
		c0.392-0.49,0.171-0.084,0.433-0.922c-1.048-0.92-2.033-2.471-2.448-4c-0.542-0.846-0.009-2.361,0.834-3.213
		c-0.533-1.968-3.947-4.622-5.753-5.26c-0.274-1.918-0.545-6.182-1.641-7.661c-0.012-2.67,0.923-2.853,3.158-3.282
		c-0.391-2.045-1.023-2.771-1.099-5.415c3.035-0.077,11.22-0.547,12.972-1.778c0.159-0.006,0.312-0.011,0.469-0.018
		c-0.922-2.359-3.401-3.523-4.367-5.763c-0.642-1.465-0.243-2.958-1.063-4.047c-0.139-2.708-0.078-4.803,0.738-6.38
		c1.078-0.033,2.16-0.068,3.253-0.105c-0.095-2.029-0.089-3.487,0.786-4.565c2.402-1.059,5.671,2.692,8.01,3.368
		c4.106,1.176,15.307-3.625,17.521-5.562c9.281-0.028,6.538-1.499,10.045-6.231c-0.314-2.644-2.083-5.123-3.921-6.228
		c0.275-0.818,0.051-0.431,0.437-0.915c2.139-1.392,15.295,4.76,16.953,6.256c2.185-0.441,3.99-2.336,5.539-1.546
		c1.079-0.618,0.678-1.001,1.34-1.86c-0.616-2.752-6.64-10.043-8.746-11.516c-0.015-0.606-0.036-1.215-0.058-1.822
		c6.577,0.021,22.049,6.984,26.387,10.044c3.199,2.251,6.852,7.296,10.066,9.204c0.106,2.517,0.038,5.496-1.186,6.847
		c0.887,2.124,2.625,1.583,3.824,3.054c0.771,0.966,0.503,4.268,1.083,4.963c0.384,0.461,4.799,1.447,5.659,2.083
		c1.007,0.751,4.502,7.578,4.928,8.919c0.607,1.912-1.637,9.157-2.477,10.066c1.186,2.573,4.803,2.59,6.206,4.792
		c0.52,1.948,1.054,3.905,1.577,5.85c0.298,0.899,0.786,1.687,0.531,2.259c0.147,5.027-5.233,8.01-9.487,8.93
		c-0.128,0.914-0.259,1.828-0.385,2.738c4.4-0.699,6.176-3.15,9.165-4.84c4.064-2.293,8.605-4.324,13.306-5.881
		c2.166-0.213,4.331-0.445,6.5-0.665c7.459-2.075,13.341-0.642,21.78-2.979c2.781-0.385,5.561-0.78,8.344-1.181
		c3.212-1.221,7.858-2.66,11.032-4.442c1.601-0.896,3.1-2.58,5.018-3.335c1.877-0.742,4.547-2.334,5.997-1.562
		c1.267,0.487,0.981,0.865,2.367,1.286c0.028,0.753,0.048,1.519,0.075,2.271c0.979,0.137,0.891,0.054,1.413,0.399
		c2.067,0.678,1.721,2.05,2.897,3.542c-0.295,5.169-4.322,4.734-7.692,7.058c-0.215,0.146,1.009,2.74,0.133,4.082
		c-0.974,2.854-3.604,2.664-5.916,4.283c-2.328,0.076-4.651,0.152-6.974,0.227c0.007,0.303,0.018,0.604,0.029,0.908
		c-0.944,0.982-2.861,1.783-3.638,2.838c-1.155,1.574-1.046,3.512-2.653,4.633c-1.5,1.049-4.018,0.262-4.631,0.598
		c-0.66,0.357-0.033,1.154-0.411,1.828c-1.092,1.986-2.722,2.762-5.958,2.926c-0.721,1.961-1.003,3.496-2.646,4.621
		c0.678,3.301,3.289,4.355,4.866,6.652c1.054,1.551,1.847,4.137,2.503,5.822c-1.077,1.166-1.268,2.805-2.192,4.164
		c-2.881,4.182-7.865,7.572-12.723,9.939l-3.256,0.104c-2.003,0.219-4.017,0.436-6.031,0.652c-0.838,6.768-7.176,5.508-8.953,11.193
		c-2.213,0.252-5.117,0.986-6.994-0.234c-1.142,1.123-1.385,2.209-3.167,2.83c-1.994,1.408-6.229,0.232-7.916-0.195
		c-5.067-1.266-8.84-2.262-12.712-4.582c-1.352-0.807-4.154-3.75-6.164-3.434c-1.395,0.223-3.304,1.598-5.548,1.092
		c-2.362-0.531-6.067-2.096-9.813-1.041c-5.097,1.42-19.439,1.807-24.647,0.801c-4.5-0.867-7.715,1.061-10.677,0.797
		c-5.403-0.477-12.5,0.252-18.619,0.156c-1.238-0.117-2.486-0.221-3.731-0.336c-1.731,0.416-6.69,1.168-9.764,0.32
		c-4.467-1.238-7.542-3.795-10.889-6.004c-2.447-1.613-4.981-2.408-6.672-4.779L104.433,222.873z M179.905,106.467
		c1.354,1.17,3.748,0.965,5.188,2.1c2.798,2.19,6.208,6.56,9.104,8.327c1.411,0.859,3.146,0.395,4.693,1.207
		c1.616,0.857,2.107,3.646,3.411,4.892c-0.415,3.091-0.898,5.133-4.955,5.146c-1.15-2.799-1.739-6.244-3.528-8.505
		c-1.573-1.997-4.809-2.045-7.091-3.409c-1.45-0.861-7.1-8.015-8.215-9.712C178.978,106.498,179.437,106.483,179.905,106.467z
		 M190.271,110.213c2.021,1.459,4.944,1.634,7.072,2.953c0.486,0.584,0.969,1.174,1.447,1.766c3.274,2.129,7.574,3.97,9.997,6.939
		c0.932,1.142,1.34,2.171,2.417,3.1c0.049,2.003-0.22,3.928-0.751,5.472c-2.535-0.424-5.708-1.132-8.441-1.993
		c1.054-2.219,2.147-3.018,2.122-6.43c-1.621-1.125-1.852-3.791-3.41-4.883c-1.883-0.543-3.758-1.094-5.634-1.629
		C193.702,114.537,190.216,111.062,190.271,110.213z M167.225,117.771c3.154,1.559,6.31,3.129,9.462,4.686
		c0.005,0.154,0.007,0.302,0.013,0.457c-0.932,0.03-1.858,0.06-2.792,0.091c-1.096-0.692-2.913-0.526-3.283-0.802
		c-1.75-1.052-2.593-2.881-4.315-3.948C166.795,117.846,166.407,118.098,167.225,117.771z M187.252,118.027
		c1.218,1.013,2.925,1.193,4.258,2.135c1.406,0.988,3.762,6.151,3.033,7.619c0.003,0.151,0.009,0.295,0.013,0.448
		c-1.662-0.174-1.67-0.054-3.715,0.119c-1.478-2.898-3.646-4.944-5.364-7.536C186.269,119.898,186.118,118.703,187.252,118.027z
		 M166.865,120.963c2.177,3.274,0.173,6.233-2.527,8.711c-0.736-0.67-0.868-0.303-1.432-1.32
		C165.072,126.569,164.817,122.783,166.865,120.963z M183.631,121.33c0.613,0.85,1.222,0.638,1.903,1.298
		c1.499,1.443,1.903,3.927,3.424,5.335c-0.484,2.13-0.717,3.655-1.193,6.396c-0.155,0.005-0.307,0.009-0.461,0.013
		c-0.458-5.837-3.675-8.691-5.066-12.995C182.704,121.359,183.161,121.342,183.631,121.33z M180.416,122.792
		c2.564,4.036,4.62,7.766,5.56,13.889c-1.199,1.19-1.788,3.149-3.129,4.186c-1.2,0.945-2.619,1.327-3.646,2.388
		c-0.847-0.255-0.438-0.042-0.943-0.417c-1.096-0.669-1.144-0.643-1.463-2.222c1.199-1.165,1.021-1.94,1.743-3.69
		c0.306-0.758,1.551-2.008,1.765-2.784c1.163-3.988-1.75-7.207-2.177-10.366C179.343,123.403,179.209,123.186,180.416,122.792z
		 M172.065,123.518c1.409,0.41,2.815,0.816,4.226,1.224c0.828,3.186,1.979,5.177,2.158,9.462c-1.893,1.646-1.7,5.224-3.983,6.49
		c-1.138,1.184-2.823,1.78-5.058,1.977c-0.003-0.149-0.009-0.3-0.015-0.453c2.367-1.577,4.14-4.464,4.889-7.422
		C175.645,129.381,170.557,125.231,172.065,123.518z M170.279,125.848c1.889,4.947,3.703,11.107-1.407,14.571
		c0.004,0.152,0.008,0.301,0.015,0.455c-0.159,0.004-0.312,0.012-0.463,0.017c-0.015-0.303-0.024-0.606-0.038-0.91
		c1.897-3.002-2.609-7.167-1.689-9.475C167.14,128.764,168.531,126.478,170.279,125.848z M162.884,142.429
		c-1.085,0.031-2.173,0.07-3.258,0.106c0.113-2.565,2.125-7.391,1.576-9.129c-0.338-1.097-1.533-2.122-1.976-3.563
		c0.468-0.017,0.933-0.03,1.403-0.046c1.347,0.82,2.752,0.507,3.767,1.684c0.997,1.117,1.609,3.327,2.023,4.936
		C164.945,137.567,163.185,140.282,162.884,142.429z M156.902,129.917c0.664,2.279,1.997,2.87,2.493,5.358
		c-1.367,1.859-0.729,4.432-1.642,6.867c-1.313,3.506-4.715,5.885-7.18,8.404c-1.703,0.209-3.402,0.412-5.102,0.625
		c-0.011-0.303-0.018-0.606-0.028-0.912c1.811-1.899,2.486-4.726,3.967-6.941c1.461-2.164,4.538-4.374,5.373-6.981
		c0.862-2.712-1.817-4.472,0.273-5.912C155.6,130.026,155.818,130.04,156.902,129.917z M197.843,129.033
		c3.103,2.861,7.43,3.417,7.734,9.28c-2.114,2.02-4.16,3.632-8.256,3.906c-0.008-0.303-0.018-0.607-0.028-0.91
		c0.873-1.056,1.202-2.309,1.271-4.124c-1.048-0.983-1.043-2.401-1.976-3.569c-1.21-1.515-3.029-1.837-3.851-3.958
		C194.89,129.408,195.897,129.433,197.843,129.033z M203.443,129.762c2.705,1.951,5.76,2.32,6.262,6.607
		c0.635,0.749,0.855,1.902,1.031,3.145c-1.238,1.459-2.026,3.509-3.574,4.655c-0.726,0.532-1.262,0.377-1.831,0.97
		c-1.568-0.558-3.143-1.112-4.711-1.667c0.482-0.408,0.1-0.162,0.917-0.48c1.438-1.37,3.799-1.258,4.548-3.33
		c0.959-1.044,0.907-2.465,0.788-4.562c-1.578-1.012-3.751-3.78-4.822-5.294C202.517,129.79,202.981,129.776,203.443,129.762z
		 M152.759,131.409c0.138,2.293,0.924,3.722,0.175,5.447c-0.87,1.98-3.29,3.819-4.479,5.587c-1.63,2.423-3.162,5.342-4.413,7.864
		c-0.126,0.759-0.257,1.525-0.391,2.282c-0.775,1.21-2.398,2.486-3.136,3.737c-1.292,2.149-1.763,8.516-2.055,8.689
		c-0.014-0.304-0.025-0.609-0.029-0.905c-2.167-1.569-1.477-5.149-0.697-7.246c1.325-3.526,1.123-7.901,3.396-10.549
		c0.394-0.461,1.456-0.443,1.831-0.97c0.847-1.174,0.933-2.472,1.747-3.686c0.45-0.319,0.905-0.637,1.365-0.951
		c0.929-1.485,0.882-6.563,2.098-7.337C149.308,132.399,151.238,132.026,152.759,131.409z M223.178,179.969
		c0.232-2.436,0.47-4.857,0.705-7.287c-0.154,0.003-0.314,0.007-0.465,0.014c-0.006-0.152-0.011-0.303-0.018-0.455
		c-0.463,0.016-0.926,0.029-1.393,0.046c0.589,17.397-5.555,17.683-13.124,26.759c-10.87-0.32-20.818-5.164-31.388-6.246
		c-8.303-0.842-20.238,7.254-23.854,11.219c-1.212-0.182-2.073-0.352-3.73-0.326c-1.005-2.574-4.871-9.043-7.743-9.285
		c-0.924-0.533-2.368,0.082-3.732-0.338c-1.85-0.557-7.666-5.404-8.597-6.98c-0.205-1.66-0.417-3.314-0.621-4.975
		c1.578-0.715,3.361-1.74,4.567-2.877c2.832,0.543,8.159,4.006,9.873,3.316c0.392-0.496,0.167-0.104,0.443-0.924
		c-0.761-0.967-2.77-8.211-2.186-10.375c0.177-0.656,1.387-1.258,0.836-2.743c-0.339-0.937-2.07-2.749-2.458-4.01
		c-1.138-3.818,3.454-10.694,5.694-11.535c1.73-1.296,5.06-0.796,6.922-2.04c1.788-2.172,3.587-4.357,5.381-6.527
		c1.258-0.826,3.572,0.2,5.098-0.628c1.311-0.703,1.749-3.634,3.114-4.641c0.016,0.455,0.029,0.912,0.045,1.366
		c-0.557,0.848-0.623,3.509-0.791,4.562c0.853,0.26,0.442,0.055,0.946,0.424c1.134-0.379,1.149-1.137,1.812-1.414
		c1.087,0.116,2.187,0.226,3.275,0.342c1.23-0.443,2.06-1.598,4.125-1.949c1.091,1.648,1.846,2.217,4.72,2.117
		c1.979-2.724,5.758-4.253,7.692-7.062c1.348-1.945,1.342-5.02,2.583-6.896c1.92,2.645,4.862,3.303,5.353,7.543
		c-0.746,0.963-1.026,2.746-1.267,4.131c-5.798,1.383-7.16,4.968-10.437,8.506c0.049,4.695-0.889,7.178,1.269,10.858
		c1.427,2.42,3.543,2.273,3.924,6.228c-1.109,1.154-0.483,1.57-2.737,1.9c-1.161-1.609-3.228-4.578-5.741-4.801
		c0.008,0.306,0.017,0.609,0.028,0.905c1.939,1.734,2.686,4.709,5.759,5.261c0.346,0.137,1.34,0.004,2.787-0.09
		c0.826-1.909,1.851-3.565,2.145-5.973c-9.705-4.577-7.308-21.265,5.369-21.514c1.788,1.459,12.016,4.437,15.057,4.962
		c0.655,4.874,3.372,4.345,4.874,7.104c1.277,2.337,0.459,5.815,2.104,7.651c0.563,0.363,0.783,0.336,1.876,0.395
		c0.672-0.919,1.613-1.333,2.295-0.984c5.183,1.037,7.692,6.221,7.84,12.454c-1.793,1.17-4.461,3.129-5.908,4.732
		C224.731,179.918,223.956,179.943,223.178,179.969z M130.923,132.571c2.546,2.388,5.724,2.002,8.492,3.811
		c-1.517,0.986-4.18,3.79-5.477,3.359c-2.604-0.617-4.202-2.602-4.367-5.763C130.247,133.249,129.878,133.125,130.923,132.571z
		 M210.045,132.273c1.403,1.612,3.256,1.372,3.845,3.96c1.704,2.105,0.472,9.014-0.597,10.459c-0.639,0.478-1.518,0.498-2.783,0.546
		c-0.745-0.549-2.089-0.708-2.83-1.271c-0.154,0.005-0.311,0.007-0.46,0.015c-0.004-0.152-0.008-0.306-0.014-0.457
		c2.636-1.531,4.902-3.395,4.881-7.424C211.267,137.182,210.045,132.273,210.045,132.273z M145.873,134.361
		c0.412,8.079-6.523,11.332-8.759,17.536c-0.885,2.456-0.461,6.517-2.548,7.8c-0.009-0.157-0.011-0.301-0.018-0.46
		c-2.52-1.726-1.726-4.833-1.645-8.114c0.202-8.604,2.531-9.873,7.954-13.429C142.533,136.601,143.613,135.008,145.873,134.361z
		 M125.947,137.278c0.775-0.025,1.551-0.051,2.326-0.077c1.2,2.143,3.67,3.01,4.359,5.303c-0.537,0.552-0.805,1.32-1.342,1.863
		c-0.007-0.148-0.012-0.301-0.018-0.454C128.253,142.506,125.939,142.098,125.947,137.278z M216.819,140.673
		c1.334,2.408,2.8,3.429,3.02,7.169c-1.445,1.583-1.748,3.808-4.043,4.669c-0.003-0.146-0.004-0.298-0.01-0.455
		c-1.01-0.907-1.331-1.737-1.51-3.581C216.396,146.67,215.283,143.06,216.819,140.673z M127.544,143.576
		c0.91,1.292,2.435,2.284,3.815,3.059c-0.2,1.402-0.335,1.496,0.088,2.72c-0.308,0.01-0.622,0.019-0.922,0.028
		c-0.007-0.152-0.01-0.3-0.018-0.452c-1.235-1.042-2.137-2.486-3.373-3.52C127.184,144.34,127.16,144.125,127.544,143.576z
		 M221.068,142.358c1.091,3.253,3.502,5.426,4.017,9.396c-2.502,1.03-3.218,3.369-6.38,4.295c-0.178-1.701-0.416-1.688-1.015-2.692
		c1.726-1.36,2.486-3.603,4.027-5.124c-0.096-2.847-0.943-3.79-1.58-5.847C220.445,142.376,220.76,142.369,221.068,142.358z
		 M206.932,161.303c-0.157,0.013-0.31,0.022-0.465,0.033c0.006,0.152,0.018,0.299,0.024,0.456c-2.625,0.213-7.983,1.2-9.775,0.154
		c-3.559-0.373-6.091-4.397-7.445-7.267c1.661-1.02,3.021-2.723,4.906-3.488c8.71-3.544,16.789,1.912,21.727,4.558
		c-0.368,0.57-0.325,0.532-0.867,0.962c0,0-7.747-3.01-9.112-3.982c-1.372,2.259-0.45,5.244-2.328,7.419
		c0.007,0.149,0.018,0.304,0.03,0.455c1.074-0.223,2.146-0.44,3.22-0.659C206.878,160.4,206.904,160.854,206.932,161.303z
		 M167.694,163.644c-0.152,0.015-0.309,0.032-0.456,0.05c-4.959,5.056-14.681,2.465-18.812-0.635
		c-0.497-7.074,12.128-13.315,20.649-11.898c1.747,0.294,3.917,1.287,5.801,1.632c0.209,0.435,0.417,0.871,0.625,1.305
		c-1.613,0.32-5.946-0.183-7.665-1.425c-1.688,0.188-3.387,0.376-5.084,0.569c0.582,1.193,1.712,1.665,2.157,2.491
		c1.502,2.75-2.041,7.149-3.281,8.131c0.023,0.149,0.04,0.303,0.053,0.452c1.954-0.677,3.909-1.346,5.858-2.025
		C167.59,162.745,167.648,163.19,167.694,163.644z M128.801,153.979c-1.156,2.283-2.392,5.396-5.88,5.635
		c-0.89-0.615-2.587-0.997-3.753-1.236c-0.201-1.412-0.556-2.117-1.035-3.148c0.619-0.016,1.238-0.039,1.86-0.058
		C121.625,154.009,126.371,154.037,128.801,153.979z M196.614,152.854c1.213,1.116,1.701,0.76,2.056,3.056
		c-0.375,0.506-0.158,0.109-0.408,0.94c-0.31,0.02-0.616,0.04-0.925,0.056c-0.013-0.149-0.024-0.303-0.031-0.453
		C195.802,155.674,195.185,154.166,196.614,152.854z M130.704,155.276c0.43,4.48,2.978,4.989,4.891,7.563
		c0.814,1.094,0.682,2.488,1.504,3.585c1.126,1.488,2.976,1.545,3.842,3.504c-2.035-0.407-2.228,0.784-5.089,1.074
		c-0.859-1.033-1.699-0.959-2.854-1.725c-2.705-1.8-5.307-5.853-6.341-9.324C128.317,158.635,128.921,156.519,130.704,155.276z
		 M157.007,160.273c-2.212,0.041-3.667-0.508-4.476-2.243c0.159-0.02,0.315-0.038,0.468-0.052c-0.017-0.146-0.036-0.299-0.053-0.44
		c0.909-0.255,1.813-0.513,2.717-0.771c0.024,0.156,0.042,0.308,0.057,0.458c0.153-0.017,0.313-0.035,0.462-0.05
		C156.459,158.202,156.733,159.235,157.007,160.273z M224.257,154.959c-0.12,3.117-1.792,4.46-3.056,6.458
		c-0.313,0.011-0.623,0.025-0.933,0.033c-0.011-0.304-0.021-0.606-0.031-0.909c-0.53-0.678-0.539-1.845-0.563-3.159
		C221.646,156.86,222.668,155.824,224.257,154.959z M119.683,160.18c0.981,0.729,2.808,0.987,4.23,1.221
		c0.009,0.151,0.01,0.306,0.014,0.455c-0.612,0.901-0.412,2.984-0.319,4.554c-0.158,0.007-0.305,0.009-0.469,0.013
		c-2.28-1.646-5.568-1.89-6.664-4.779c-0.385-0.253-0.138-0.013-0.016-0.452C117.289,160.466,118.119,160.312,119.683,160.18z
		 M125.802,162.255c1.146,4.229,6.247,9.81,10.565,10.546c1.313,0.221,3.019-0.605,4.172-0.591c0.004,0.151,0.008,0.312,0.015,0.458
		c-0.481,0.816,0.075,1.014-0.406,1.826c-0.819,0.611-2.651,0.586-4.173,0.586c-0.941-0.592-5.012-0.77-7.031-1.584
		c-1.89-0.764-1.752-1.933-3.354-3.067C125.372,167.471,124.31,164.357,125.802,162.255z M117.521,165.241
		c1.564,1.796,5.019,1.742,6.172,3.889c0.796,0.992,0.981,2.805,1.067,4.505c-0.305,0.01-0.622,0.02-0.925,0.029
		C122.373,171.877,115.325,168.722,117.521,165.241z M303.112,161.026c0.555,0.924,0.705,0.801,1.001,2.237
		c-2.991,0.993-6.171,3.691-9.151,4.836c-7.045,2.702-13.896,5.023-20.72,7.48c-3.082,1.113-5.87,0.701-9.249,1.658
		c-7.848,2.25-15.879,3.127-22.621,6.189c-2.582,1.178-3.749,4.486-5.859,6.098c-4.119,3.133-9.122,3.92-14.229,6.365
		c-1.368,0.648-2.521,2.33-4.102,2.854c-2.687,0.889-3.838,0.127-6.51,0.211c-0.006-0.154-0.009-0.299-0.016-0.447
		c4.054-2.525,5.821-7.498,9.447-10.301c2.768-2.127,6.415-2.576,9.637-4.402c2.813-1.59,5.603-4.857,8.656-6.18
		c11.236-4.871,28.274-2.74,39.835-6.287c2.382-0.738,5.235-2.121,7.354-2.966c1.543-0.353,3.083-0.702,4.618-1.059
		C294.978,165.286,298.347,162.384,303.112,161.026z M306.943,164.532c0.897,1.412,1.656,2.325,2.007,4.473
		c-1.144,1.13-1.4,2.181-3.171,2.826c-3.035,2.558-12.989,3.114-16.657,3.269c-3.544,0.152-7.386,1.342-9.778-0.141
		c5.338-0.672,8.809-3.4,12.879-4.958c3.894-1.489,6.517-1.845,10.129-3.498C304.06,165.709,304.234,164.838,306.943,164.532z
		 M208.518,170.47c-1,1.2-1.202,3.31-2.438,4.296c-1.563,1.271-3.406,1.348-5.405,2.273c-10.523,4.936-18.62,3.795-28.86,1.064
		c-1.419-0.188-2.834-0.367-4.25-0.557c-1.018-0.973-2.038-1.955-3.054-2.936c0.115-1.762,0.538-2.067,1.124-3.275
		c0.77-0.068,1.546-0.127,2.315-0.194c-0.47,0.866-0.896,1.366-1.703,1.96c1.104,4.193,6.235,3.709,10.208,4.611
		c8.857,2.023,16.437,2.395,24.107-2.02c2.655-1.539,4.948-1.465,5.673-4.584c0.363-0.508,0.17-0.094,0.389-0.939
		c-0.589-0.344-0.555-0.31-1.008-0.82c-1.646,0.394-2.176,1.114-3.204,0.716c-0.156,0.012-0.307,0.027-0.461,0.039
		c-0.011-0.149-0.026-0.301-0.04-0.446c0.154-0.01,0.305-0.023,0.466-0.04c0.896-1.387,2.049-1.629,4.521-1.752
		C207.45,168.672,208.015,169.504,208.518,170.47z M35.479,176.535c3.323,2.031,8.119,0.422,12.61,1.404
		c17.018,3.725,37.964,2.699,53.061-0.357c3.791-0.771,12.452,4.861,15.094,6.316c2.277,1.266,3.833,0.141,4.296,3.488
		c1.043,1.453,0.977,5.182,1.608,6.758c-1.55,0.049-3.099,0.1-4.65,0.15c-1.791-1.059-4.777-0.615-6.568-1.602
		c-3.13-1.715-6.016-5.436-9.509-6.496c-4.2-1.277-8.607,0.439-11.598,1.279c-2.35,0.67-13.16-0.178-15.855-0.846
		c-9.589-2.359-21.183-2.352-30.425-5.361c-3.685-1.195-7.219-3.365-11.3-4.18c-0.005-0.145-0.009-0.295-0.016-0.447
		C33.309,176.605,34.391,176.572,35.479,176.535z M127.56,173.99c2.614,2.928,9.115,2.619,13.583,2.291
		c0.005,0.303,0.012,0.6,0.025,0.9c0.587,0.887,0.34,1.885,0.559,3.162c-0.302,0.008-0.615,0.021-0.927,0.033
		c-1.25-1.117-6.111-3.445-8.92-2.434c-1.425,0.51-1.24,1.92-2.747,1.447C128.007,178.494,126.584,175.535,127.56,173.99z
		 M127.417,183.982c-0.984-0.123-0.895-0.049-1.41-0.398c-1.353-1.266-2.854-3.885-3.445-5.797c-0.396-0.447-0.15-1.096,0.412-1.824
		c0.588-0.445,1.134-0.455,2.31-0.533c0.008,0.15,0.015,0.309,0.016,0.455c0.155-0.004,0.308-0.01,0.464-0.014
		C126.097,179.023,127.246,180.057,127.417,183.982z M30.885,178.5c5.866,4.791,22.358,6.609,31.458,8.51
		c4.534,0.949,9.783-0.34,13.091,1.848c-0.156,0.004-0.311,0.01-0.461,0.016c-6.69,5.461-32.966,3.336-39.109-0.09
		c-2.867-1.604-6.38-3.75-5.818-7.527C30.307,179.436,29.557,179.344,30.885,178.5z M300.754,174.717
		c0.435,1.559,0.884,1.961,1.051,4.059c-2.027,0.75-1.704,1.697-4.589,1.957c-1.521,1.084-5.958,0.658-8.36,0.734
		c-7.849,0.258-14.529,0.025-21.439-1.123c-0.172-0.443-0.347-0.9-0.511-1.342c2.907-0.27,4.995-1.398,7.381-2.061
		c2.692-0.746,6.397,0.451,8.381,0.178C288.05,176.402,295.575,175.529,300.754,174.717z M264.594,179.525
		c-0.188,1.625-0.735,2.354-1.285,3.674c-2.68,0.275-5.346,1.213-6.421,2.938c-0.437,0.688,0.193,1.344-0.411,1.828
		c-1.825,1.492-5.548,1.146-7.369,2.506c-2.822,2.125-0.548,4.742-5.423,5.174c-1.915,1.367-14.811,2.34-19.934,2.471
		c-0.006-0.156-0.01-0.305-0.019-0.459c4.624-1.803,9.546-3.191,13.313-5.883c2.386-1.699,3.687-5.078,6.312-6.561
		C248.174,182.502,257.862,180.006,264.594,179.525z M124.637,184.535c0.808,0.984,2.63,1.23,3.325,2.162
		c1.629,2.178,1.793,3.566,3.9,5.32c-0.271,0.836-0.052,0.428-0.44,0.922c-0.806,0.863-2.46,1.406-3.708,0.576
		c-1.95-0.492-2.766-1.691-4.27-2.584c0.041-1.16-0.917-3.527-1.116-5.871c0.308-0.01,0.624-0.02,0.929-0.029
		C123.761,184.65,123.671,184.74,124.637,184.535z M265.662,184.035c0.036-1.191,0.147-1.551,0.399-2.289
		c5.775,1.686,14.793,1.328,21.911,1.109c0.012,0.303,0.022,0.604,0.031,0.91c-2.269,1.447-5.621,1.607-9.727,1.674
		C274.072,184.975,269.869,184.504,265.662,184.035z M108.862,200.936c-0.181-0.9-0.366-1.805-0.549-2.705
		c-2.008,0.217-4.024,0.43-6.029,0.652c-0.016-0.457-0.031-0.912-0.046-1.371c-0.949-0.414-2.278-0.777-2.842-1.717
		c-0.498-0.621-0.511-1.473-0.558-2.705c-2.919-0.207-4.102-0.377-6.982-0.227c-0.358-1.35-0.712-2.699-1.067-4.051
		c3.377-0.541,5.662-0.682,9.756-0.771c4.746,5.746,13.147,8.426,23.534,8.318c0.748,1.061,1.415,1.266,1.945,2.66
		c-0.155,0.004-0.309,0.012-0.468,0.018c-0.634,0.537-11.423,3.83-12.452,3.582C111.685,202.266,110.89,201.188,108.862,200.936z
		 M83.353,189.057c1.135,0.867,2.785,1.158,4.693,1.207c0.741,1.092,1.117,0.996,1.485,2.672c-0.391,0.496-0.169,0.107-0.44,0.926
		c-10.763,0.58-17.582,3.701-29.659,4.143c-0.808-1.201-1.7-2.166-2.442-3.555c4.634-0.604,9.277-1.207,13.904-1.813
		C74.88,191.459,78.676,189.482,83.353,189.057z M262.438,185.041c4.12,2.389,18.779,0.148,21.949,2.467
		c-1.39,1.486-1.228,2.537-4.092,2.859c-6.857-0.828-13.709-1.676-20.563-2.51c-0.274-0.682-0.343-0.752-0.519-1.799
		C260.288,185.719,261.36,185.389,262.438,185.041z M258.851,189.25c3.154,2.076,13.702,1.875,18.23,2.58
		c0.007,0.303,0.018,0.611,0.03,0.91c-0.68,0.768-1.024,1.645-1.794,2.332c-1.765-0.957-2.938,0.566-5.109,0.17
		c-3.644-0.682-8.418-1.543-12.175-2.338c-2.866-0.598-6.16,0.514-7.496-1.57c0.306-0.01,0.614-0.02,0.923-0.029
		C253.052,190.117,256.489,189.473,258.851,189.25z M133.753,193.324c0.926,0.906,2.065,1.59,3.332,2.156
		c-0.265,0.836-0.051,0.426-0.435,0.916c-1.631,1.41-5.254,2.15-7.837,2.531c-1.606-1.768-3.212-3.535-4.821-5.287
		c0.156-0.008,0.311-0.012,0.472-0.02C127.166,196.254,131.06,195.021,133.753,193.324z M95.627,194.563
		c0.744,0.664,0.882,0.289,1.439,1.309c-0.155,0.008-0.313,0.01-0.463,0.018c-3.08,4.479-20.35,7.891-28.604,8.195
		c-0.861-1.096-2.285-2.604-3.367-3.529c-0.01-0.295-0.023-0.6-0.03-0.9c0.314-0.01,0.616-0.021,0.928-0.031
		c2.261-1.619,5.929-0.342,9.271-1.211C81.311,196.715,88.669,195.09,95.627,194.563z M142.213,195.766
		c0.47,0.85,0.687,1.242,1.453,1.768c-0.14,0.455-0.28,0.924-0.421,1.377c-2.341,0.998-1.655,2.277-5.509,2.447
		c-1.215-0.877-3.699-1.117-5.167-1.641c-0.007-0.152-0.013-0.313-0.02-0.461C136.897,198.818,137.876,196.199,142.213,195.766z
		 M155.606,207.135c-0.029-0.9-0.058-1.811-0.086-2.719c1.938-0.725,2.637-2.26,4.088-3.307c3.51-2.559,12.708-7.877,20.281-6.117
		c8.112,1.893,16.883,3.779,24.852,5.551c3.363,0.748,8.006,0.033,11.192,0.539c1.861,0.301,4.198-0.738,5.546-1.084
		c4.03-0.279,8.053-0.566,12.073-0.846c7.28-1.914,21.537-3.863,29.774-0.514c3.408,1.385,5.518,4.709,7.691,7.469
		c2.105,2.67,4.497,4.699,4.45,8.479c-1.635,1.33-2.319,3.402-3.563,5.113c-1.199,1.646-6.973,5.492-9.116,6.197
		c-6.02,2.004-17.859,1.459-23.269,0.301c-2.013,0.064-4.028,0.131-6.033,0.193c-2.609-0.545-6.522-1.361-8.908-1.975
		c-2.024-0.09-4.043-0.17-6.06-0.258c-6.423-1.76-12.838-3.525-19.257-5.273c-2.959-0.656-10.085,1.982-12.956,2.693
		c-4.926,1.207-12.946,0.486-18.63-0.762c-3.516-0.77-6.93,1.215-8.434-1.537c-0.517-0.395-0.04,0.037-0.479-0.441
		c1.089-0.039,2.179-0.074,3.253-0.105c1.678-1.148,9.204-1.225,11.586-1.742c0.141-0.457,0.287-0.914,0.422-1.373
		c-1.398,0.043-2.791,0.086-4.186,0.135c-1.393,1.045-12.771,1.777-13.935,0.91c-0.417-0.473-0.163-0.094-0.496-0.891
		c0.499-0.43,0.042,0.033,0.455-0.477c5.713-0.426,9.426-3.213,14.283-4.549c0.141-0.455,0.289-0.912,0.423-1.369
		c-0.771,0.021-1.545,0.051-2.319,0.07c-3.122,2.633-8.168,2.855-12.429,4.49c-0.009-0.303-0.02-0.6-0.028-0.908
		c-0.919-0.867-0.996-1.729-1.045-3.592c4.288-1.803,8.578-3.613,12.858-5.414c0.431-0.438,0.6-0.813,0.894-1.4
		c-0.777,0.027-1.555,0.051-2.329,0.074C163.927,204.594,159.01,206.738,155.606,207.135z M99.479,198.518
		c0.018,0.607,0.04,1.213,0.058,1.814c-5.152,2.859-17.999,14.207-25.438,5.361c0.153-0.002,0.314-0.008,0.466-0.016
		c2.416-1.777,6.925-1.162,10.175-2.135C89.902,201.982,94.561,198.676,99.479,198.518z M250.622,194.057
		c6.54,0.994,13.097,1.994,19.643,2.994c0.013,0.457,0.026,0.904,0.041,1.359c-0.368,0.459-0.635,1.262-0.875,1.842
		c-0.308,0.014-0.613,0.021-0.925,0.035c-2.593-3.291-7.411-3.611-12.256-4.592c-2.437-0.502-5.354,0.59-6.547-1.16
		c-0.153,0.004-0.314,0.012-0.467,0.018c-0.007-0.148-0.008-0.297-0.016-0.453C249.69,194.088,250.158,194.072,250.622,194.057z
		 M144.658,199.322c0.71,1.113,1.456,1.709,1.958,3.109c-0.622,0.021-1.246,0.041-1.862,0.063c-0.646-0.492-1.363-0.648-2.353-0.826
		c-0.014-0.313-0.021-0.615-0.029-0.91C143.325,200.148,143.401,199.77,144.658,199.322z M106.523,200.563
		c0.019,0.6,0.04,1.207,0.055,1.811c-5.416,3.301-8.662,10.176-15.929,11.414c-1.698-1.27-3.458-1.256-4.303-3.488
		c3.363-1.629,6.728-3.246,10.089-4.869C99.705,203.285,100.896,200.938,106.523,200.563z M153.223,205.402
		c0.072,2.504-1.237,5.064-0.714,6.826c0.278,0.949,2.142,1.275,1.939,2.664c-0.034,0.232-1.12,1.316-1.307,2.768
		c3.092,1.385,4.258,4.486,7.602,4.746c1.336,0.775,3.661-0.111,5.583,0.271c6.493,1.281,15.708,2.174,22.82,0.164
		c2.535-0.709,6.806-2.705,9.707-2.129c4.296,0.85,8.854,3.016,12.702,4.123c4.15,1.201,7.402,0.453,11.684,1.436
		c8.277,1.904,18.558,2.953,28.479,2.711c0.004,0.154,0.012,0.301,0.017,0.457c-1.394,1.83-0.774,3.48-4.072,3.758
		c-3.595,2.559-13.375-1.789-16.334-1.285c0.01,0.299,0.021,0.611,0.029,0.91c0.153-0.008,0.308-0.008,0.465-0.014
		c2.685,2.236,11.635,1.178,13.147,3.658c-0.844,0.607-0.753,0.928-1.819,1.414c-3.496,2.549-15.767-2.98-18.723-3.473
		c0.002,0.152,0.002,0.305,0.01,0.457c-0.153,0.006-0.311,0.008-0.464,0.014c0.317,0.807,0.072,0.42,0.494,0.891
		c2.412,2.197,9.841,2.57,10.832,4.189c-1.037,0.59-1.013,0.787-2.76,0.994c-1.439,0.859-5.97-0.551-7.479-1.121
		c-2.707-1.008-5.162-1.141-7.522-2.475c-2.975-1.68-6.141-6.084-11.785-4.611c-4.341,1.139-7.076-1.682-11.653-0.531
		c-5.035,1.271-18.963,1.799-24.182,0.783c-2.628-0.504-9.782,0.514-13.485,0.441c-8.257-0.156-24.051,2.512-30.705,0.553
		c-5.071-1.5-10.037-4.916-14.207-7.715c-1.951-1.32-3.111-3.697-4.822-5.295c-0.71-12.898,3.448-15.039,14.311-18.619
		c1.673-0.555,4.762-2.346,6.918-2.049C135.949,201.426,144.347,204.982,153.223,205.402z M109.398,203.189
		c0.828,0.766,1.328,0.615,1.921,1.756c-0.16,0.006-0.313,0.01-0.468,0.016c-1.716,1.867-4.247,3.26-5.41,5.619
		c-1.14,2.326,0.245,5.125-2.608,5.99c-2.515-1.492-5.018-0.406-6.158-3.432C101.348,210.338,103.958,205.074,109.398,203.189z"/>
</g>
<g>
	<path fill="#C1A166" d="M70.241,114.833l-6.607,12.252l8.268,7.885l-4.13,7.657L36.52,110.156l4.79-8.883l44.328,8.223
		l-4.268,7.913L70.241,114.833z M63.49,113.3l-4.742-1.106c-4.563-0.946-9.453-2.265-14.143-3.345l-0.11,0.205
		c3.612,3.2,7.294,6.636,10.619,9.878l3.53,3.353L63.49,113.3z"/>
</g>
<g>
	<path fill="#C1A166" d="M62.055,86.981l4.738-5.098l3.538,2.497l0.158-0.169c-0.105-3.977,0.447-7.978,3.448-11.206
		c4.778-5.141,10.399-4.033,16.39,1.535l14.826,13.781l-5.806,6.245l-14.062-13.07c-3.653-3.396-5.918-3.601-8.089-1.265
		c-1.816,1.954-2.027,4.055-1.944,7.458l16.355,15.203l-5.765,6.202L62.055,86.981z"/>
</g>
<g>
	<path fill="#C1A166" d="M110.678,91.481c-1.316-2.386-0.965-5.23,0.813-8.132l-0.141-0.254c-2.005-0.152-3.935-1.009-5.224-3.345
		c-1.177-2.133-0.797-4.926,0.206-7.069l-0.111-0.203c-2.715-0.357-6.027-2.04-7.849-5.341c-3.698-6.703-0.253-13.307,5.789-16.641
		c1.574-0.868,3.267-1.404,4.658-1.643l10.258-5.659l3.026,5.484l-4.875,2.689c1.294,0.545,2.722,1.811,3.702,3.588
		c3.53,6.398,0.448,12.339-5.646,15.701c-1.116,0.616-2.577,1.09-4.021,1.357c-0.447,1.108-0.49,1.993,0.127,3.11
		c0.84,1.524,2.405,1.72,5.757-0.129l4.824-2.662c6.855-3.783,11.74-3.695,14.485,1.282c3.166,5.738-0.366,13.384-9.862,18.623
		C119.893,95.937,113.452,96.509,110.678,91.481z M114.268,58.368c-1.849-3.351-4.765-4.194-7.304-2.793
		c-2.539,1.4-3.432,4.345-1.582,7.696c1.849,3.352,4.865,4.138,7.354,2.766S116.117,61.72,114.268,58.368z M130.049,78.808
		c-1.12-2.031-3.076-1.614-6.123,0.066l-3.453,1.905c-1.727,0.952-3.03,1.473-4.186,1.779c-0.709,1.716-0.702,3.169-0.059,4.337
		c1.317,2.387,4.714,2.302,8.878,0.004C129.373,84.546,131.282,81.042,130.049,78.808z"/>
</g>
<g>
	<path fill="#C1A166" d="M131.379,56.059c-2.779-9.817,2.584-17.918,10.062-20.034c8.595-2.434,14.784,2.397,17.151,10.759
		c0.413,1.456,0.657,2.961,0.632,3.726l-19.253,5.449c2.074,4.772,6.156,6.415,10.788,5.104c2.567-0.727,4.585-2.114,6.437-4.095
		l4.164,4.064c-2.489,2.92-6.085,5.335-9.991,6.44C142.661,69.937,134.188,65.983,131.379,56.059z M151.102,47.156
		c-1.16-4.1-3.791-6.152-7.809-5.016c-3.292,0.933-5.553,4.02-4.915,8.617L151.102,47.156z"/>
</g>
<polygon fill-rule="evenodd" clip-rule="evenodd" fill="#C1A166" points="161.396,61.067 160.208,53.921 157.485,56.686 
	157.188,56.963 "/>
<rect x="165" y="23" fill-rule="evenodd" clip-rule="evenodd" fill="#C1A166" width="9" height="42"/>
<g>
	<path fill="#C1A166" d="M180.195,46.619l15.699,2.063l-0.793,6.038l-15.699-2.063L180.195,46.619z"/>
</g>
<g>
	<path fill="#C1A166" d="M205.336,40.09l8.11,2.437l-8.409,27.987l-8.109-2.437L205.336,40.09z M207.109,31.359
		c0.721-2.399,3.258-3.381,6.09-2.529c2.777,0.834,4.354,3.051,3.633,5.45c-0.691,2.299-3.258,3.381-6.035,2.546
		C207.965,35.976,206.419,33.659,207.109,31.359z"/>
</g>
<g>
	<path fill="#C1A166" d="M223.3,45.51l6.261,3.04l-1.276,3.956l0.207,0.101c3.724-1.16,7.67-1.717,11.634,0.208
		c6.313,3.066,6.985,8.586,3.56,15.64l-8.479,17.461l-7.67-3.725l8.042-16.56c2.09-4.303,1.591-6.462-1.277-7.855
		c-2.4-1.165-4.448-0.8-7.635,0.188l-9.354,19.262l-7.617-3.699L223.3,45.51z"/>
</g>
<g>
	<path fill="#C1A166" d="M247.555,74.278l11.438,10.949l-4.211,4.399l-11.438-10.948L247.555,74.278z"/>
</g>
<g>
	<path fill="#C1A166" d="M257.424,93.373l15.094-12.225l5.292,6.533l-14.274,11.562c-3.752,3.039-4.183,5.153-2.238,7.553
		c1.655,2.044,3.598,2.679,7.122,2.622l16.302-13.203l5.29,6.532l-24.15,19.56l-4.318-5.333l3.054-3.283l-0.144-0.178
		c-4.187-0.143-7.726-1.25-10.497-4.671C249.635,103.508,251.387,98.263,257.424,93.373z"/>
</g>
<g>
	<path fill="#C1A166" d="M270.33,121.212l5.881,1.625c-1.004,3.251-1.194,6.081-0.207,8.694c1.063,2.814,2.741,3.616,4.495,2.953
		c2.104-0.795,1.954-4.07,1.985-7.47c0.005-4.08,0.602-9.015,5.262-10.775c5.06-1.913,10.175,0.864,12.567,7.197
		c1.558,4.12,1.03,7.88,0.17,10.905l-5.713-1.632c0.644-2.541,0.905-4.879,0.107-6.99c-0.95-2.513-2.508-3.303-4.11-2.697
		c-2.055,0.776-1.762,3.825-1.743,7.207c0.002,4.249-0.294,9.07-5.505,11.039c-4.909,1.855-10.33-0.518-13.103-7.856
		C268.992,129.644,269.07,124.846,270.33,121.212z"/>
</g>
<g>
	<g>
		<path fill="#C1A166" d="M70.719,256.417c3.852-4.079,9.136-3.584,12.92-0.46c1.901,1.57,2.809,3.576,3.125,5.26
			c-1.18,0.19-1.773,0.279-2.967,0.442c-0.276-1.267-0.799-2.443-1.957-3.398c-2.315-1.91-5.471-1.782-7.902,0.948
			c-2.461,2.766-2.293,5.933,0.329,8.098c1.411,1.166,2.979,1.525,4.489,1.446c0.184,1.216,0.284,1.825,0.494,3.044
			c-2.391,0.241-4.782-0.504-6.973-2.317C68.009,265.946,66.819,260.547,70.719,256.417z"/>
		<path fill="#C1A166" d="M88.549,270.61c3.131-4.573,7.807-5.216,12.119-2.643c4.31,2.572,5.894,6.983,3.362,11.888
			s-7.551,6.185-12.416,3.28C86.747,280.23,85.432,275.165,88.549,270.61z M100.419,277.93c1.768-3.2,1.222-5.98-1.249-7.454
			c-2.471-1.475-5.194-0.649-7.173,2.426c-1.966,3.056-1.555,6.104,1.125,7.703C95.801,282.203,98.663,281.11,100.419,277.93z"/>
		<path fill="#C1A166" d="M115.813,276.116c4.23,1.849,6.378,2.68,10.72,4.156c-0.366,1.071-0.548,1.608-0.914,2.679
			c-2.993-1.018-4.479-1.571-7.422-2.762c-0.667,1.646-1,2.469-1.668,4.114c2.593,1.049,3.9,1.537,6.531,2.456
			c-0.377,1.076-0.566,1.62-0.943,2.696c-2.683-0.937-4.016-1.442-6.66-2.512c-1.038,2.558-1.557,3.837-2.596,6.395
			c-1.557-0.63-2.333-0.955-3.875-1.63C111.718,285.473,113.083,282.354,115.813,276.116z"/>
		<path fill="#C1A166" d="M134.43,282.695c4.407,1.208,6.631,1.718,11.106,2.554c-0.209,1.112-0.313,1.668-0.522,2.78
			c-3.085-0.576-4.623-0.907-7.678-1.656c-0.425,1.724-0.637,2.587-1.062,4.311c2.691,0.66,4.044,0.956,6.759,1.485
			c-0.22,1.119-0.33,1.682-0.55,2.801c-2.768-0.54-4.147-0.846-6.892-1.519c-0.662,2.68-0.993,4.017-1.656,6.695
			c-1.617-0.396-2.421-0.603-4.029-1.043C131.718,292.54,132.623,289.259,134.43,282.695z"/>
		<path fill="#C1A166" d="M153.647,286.515c4.49,0.564,6.747,0.759,11.263,0.954c-0.05,1.13-0.076,1.693-0.126,2.823
			c-3.106-0.135-4.658-0.246-7.754-0.552c-0.155,1.565-0.233,2.35-0.389,3.914c2.705,0.268,4.06,0.369,6.772,0.51
			c-0.06,1.139-0.089,1.707-0.149,2.846c-2.766-0.143-4.148-0.245-6.906-0.518c-0.181,1.813-0.272,2.716-0.453,4.527
			c3.467,0.343,5.207,0.467,8.685,0.61c-0.048,1.14-0.074,1.708-0.122,2.848c-5.198-0.215-7.796-0.431-12.964-1.081
			C152.363,296.644,152.792,293.269,153.647,286.515z"/>
		<path fill="#C1A166" d="M173.898,287.563c4.52-0.099,6.78-0.241,11.281-0.709c0.117,1.125,0.174,1.69,0.291,2.815
			c-3.097,0.322-4.646,0.438-7.753,0.588c0.076,1.571,0.11,2.356,0.187,3.928c2.714-0.132,4.07-0.229,6.776-0.487
			c0.108,1.136,0.164,1.701,0.272,2.837c-2.76,0.264-4.145,0.363-6.911,0.498c0.088,1.818,0.132,2.728,0.219,4.547
			c3.478-0.169,5.218-0.3,8.684-0.667c0.12,1.134,0.178,1.697,0.297,2.832c-5.18,0.549-7.78,0.718-12.981,0.831
			C174.117,297.771,174.045,294.369,173.898,287.563z"/>
		<path fill="#C1A166" d="M213.283,299.043c-1.659,0.16-4.56-0.677-5.453-0.409c-0.965,0.289-3.298,2.639-5.808,3.151
			c-4.274,0.874-7.039-0.94-7.454-3.553c-0.372-2.339,2.816-4.913,2.852-5.389c0.031-0.418-1.662-2.292-1.857-3.401
			c-0.411-2.332,1.094-4.565,3.998-5.184c2.563-0.546,4.535,0.469,5.068,2.635c0.539,2.189-2.961,5.38-2.937,5.728
			c0.027,0.387,4.44,2.699,4.984,2.483c0.52-0.206,1.214-3.032,1.297-4.79c1.36-0.358,2.037-0.547,3.391-0.938
			c-0.104,2.21-1.801,6.31-1.689,6.532c0.13,0.261,2.756,0.342,3.814,0.202C213.414,297.282,213.373,297.87,213.283,299.043z
			 M201.993,299.141c0.975-0.202,2.736-1.442,2.731-1.47c-0.055-0.31-4.745-2.993-5.266-2.946c-0.387,0.035-1.337,1.754-1.169,2.658
			C198.555,298.807,200.068,299.54,201.993,299.141z M199.783,290.953c0.511,0.045,2.278-2.156,2.007-3.367
			c-0.187-0.831-0.747-1.341-1.714-1.135c-1.067,0.228-1.677,1.171-1.43,2.411C198.785,289.562,199.561,290.934,199.783,290.953z"/>
		<path fill="#C1A166" d="M221.36,281.066c-2.002,0.771-3.01,1.137-5.033,1.827c-0.365-1.071-0.547-1.606-0.912-2.678
			c5.396-1.843,8.063-2.905,13.285-5.323c0.475,1.027,0.71,1.539,1.185,2.566c-1.978,0.915-2.973,1.352-4.977,2.187
			c2.181,5.24,3.268,7.861,5.446,13.104c-1.555,0.647-2.337,0.962-3.905,1.565C224.414,289.015,223.397,286.364,221.36,281.066z"/>
		<path fill="#C1A166" d="M235.999,271.242c4.093-2.2,6.108-3.394,10.044-5.965c0.617,0.948,0.926,1.422,1.543,2.37
			c-2.707,1.769-4.081,2.611-6.863,4.208c0.781,1.365,1.172,2.049,1.953,3.414c2.43-1.395,3.633-2.126,6.008-3.647
			c0.614,0.962,0.92,1.443,1.533,2.405c-2.422,1.552-3.649,2.294-6.127,3.716c0.904,1.581,1.355,2.372,2.26,3.953
			c3.114-1.787,4.654-2.731,7.683-4.718c0.624,0.955,0.936,1.435,1.56,2.39c-4.524,2.969-6.84,4.343-11.55,6.874
			C240.827,280.24,239.218,277.242,235.999,271.242z"/>
		<path fill="#C1A166" d="M269.097,263.702c-2.103,1.818-3.17,2.698-5.334,4.403c0.61,1.744,0.906,2.621,1.486,4.381
			c-1.399,1.08-2.106,1.609-3.529,2.645c-1.745-7.148-2.757-10.666-5.048-17.547c1.432-1.144,2.141-1.729,3.542-2.926
			c6.332,3.543,9.604,5.191,16.338,8.213c-1.36,1.272-2.048,1.898-3.436,3.123C271.496,265.092,270.692,264.633,269.097,263.702z
			 M266.68,262.291c-0.673-0.404-1.009-0.606-1.678-1.017c-1.634-0.936-3.306-2.086-4.932-3.13c-0.033,0.027-0.052,0.04-0.085,0.067
			c0.79,1.764,1.542,3.645,2.171,5.41c0.275,0.735,0.412,1.103,0.682,1.841C264.391,264.224,265.159,263.59,266.68,262.291z"/>
	</g>
</g>
<g>
	<path fill="#231917" d="M281.494,316.04c0-8.703,6.255-14.687,13.803-14.687c7.479,0,13.803,5.983,13.803,14.687
		c0,8.771-6.324,14.618-13.803,14.618C287.749,330.658,281.494,324.812,281.494,316.04z M306.583,316.04
		c0-7.14-5.031-12.443-11.286-12.443c-6.392,0-11.423,5.304-11.423,12.443c0,7.207,5.031,12.375,11.423,12.375
		C301.552,328.415,306.583,323.247,306.583,316.04z M290.061,308.017h5.372c2.924,0,5.711,1.224,5.711,4.896
		c0,1.836-1.224,3.672-2.923,4.147l3.671,6.46h-2.924l-2.923-5.644h-3.4v5.644h-2.584V308.017z M294.753,315.768
		c2.243,0,3.671-0.747,3.671-2.72c0-1.632-0.815-2.787-3.467-2.787h-2.313v5.507H294.753z"/>
</g>
</svg>
